{"title":"[GR HARDSUBBED] Dark.Water.2002.DVDRip.x264-GRRiPS","uid":8619741,"size":980505650,"categoryP":"video","categoryS":"movies_dvdr","magnet":"?xt=urn:btih:8bddb7972167d7fa562cdefc301416d7a25dc0aa&amp;dn=%5BGR+HARDSUBBED%5D+Dark.Water.2002.DVDRip.x264-GRRiPS&amp;tr=udp%3A%2F%2Ftracker.openbittorrent.com%3A80&amp;tr=udp%3A%2F%2Fopen.demonii.com%3A1337&amp;tr=udp%3A%2F%2Ftracker.coppersurfer.tk%3A6969&amp;tr=udp%3A%2F%2Fexodus.desync.com%3A6969","seeders":0,"leechers":1,"uploader":"GRRiPS","files":-1,"time":1372339116,"description":"----------------------------------------------------------------------------\n** PLEASE BE ADVICED: DO NOT DOWNLOAD THIS IF YOU CAN'T SPEAK/READ GREEK **\n----------------------------------------------------------------------------\n\n------------------------------------------------------\n** The movie contain GREEK -HARDSUBBED- subtitles! **\n------------------------------------------------------\n\nGeneral\nComplete name                            : Dark.Water.2002.DVDRip.x264-GRRiPS.mp4\nFormat                                   : MPEG-4\nFormat profile                           : Base Media\nCodec ID                                 : isom\nFile size                                : 935 MiB\nDuration                                 : 1h 36mn\nOverall bit rate mode                    : Variable\nOverall bit rate                         : 1 348 Kbps\n\nVideo\nID                                       : 1\nFormat                                   : AVC\nFormat/Info                              : Advanced Video Codec\nFormat profile                           : &lt;a class=&quot;__cf_email__&quot; href=&quot;/cdn-cgi/l/email-protection&quot; data-cfemail=&quot;5018393738101c647e60&quot;&gt;[email&amp;#160;protected]&lt;/a&gt;&lt;script cf-hash='f9e31' type=&quot;text/javascript&quot;&gt;\n/* &lt;![CDATA[ */!function(){try{var t=&quot;currentScript&quot;in document?document.currentScript:function(){for(var t=document.getElementsByTagName(&quot;script&quot;),e=t.length;e--;)if(t[e].getAttribute(&quot;cf-hash&quot;))return t[e]}();if(t&amp;&amp;t.previousSibling){var e,r,n,i,c=t.previousSibling,a=c.getAttribute(&quot;data-cfemail&quot;);if(a){for(e=&quot;&quot;,r=parseInt(a.substr(0,2),16),n=2;a.length-n;n+=2)i=parseInt(a.substr(n,2),16)^r,e+=String.fromCharCode(i);e=document.createTextNode(e),c.parentNode.replaceChild(e,c)}}}catch(u){}}();/* ]]&gt; */&lt;/script&gt;\nFormat settings, CABAC                   : Yes\nFormat settings, ReFrames                : 3 frames\nCodec ID                                 : avc1\nCodec ID/Info                            : Advanced Video Coding\nDuration                                 : 1h 36mn\nBit rate mode                            : Variable\nBit rate                                 : 1 025 Kbps\nMaximum bit rate                         : 25.0 Mbps\nWidth                                    : 648 pixels\nHeight                                   : 528 pixels\nDisplay aspect ratio                     : 1.227\nFrame rate mode                          : Constant\nFrame rate                               : 25.000 fps\nColor space                              : YUV\nChroma subsampling                       : 4:2:0\nBit depth                                : 8 bits\nScan type                                : Progressive\nBits/(Pixel*Frame)                       : 0.120\nStream size                              : 711 MiB (76%)\nWriting library                          : x264 core 129 r2245 bc13772\n\nAudio\nID                                       : 2\nFormat                                   : AAC\nFormat/Info                              : Advanced Audio Codec\nFormat profile                           : LC\nCodec ID                                 : 40\nDuration                                 : 1h 36mn\nBit rate mode                            : Variable\nBit rate                                 : 320 Kbps\nMaximum bit rate                         : 328 Kbps\nChannel(s)                               : 6 channels\nChannel positions                        : Front: L C R, Side: L R, LFE\nSampling rate                            : 48.0 KHz\nCompression mode                         : Lossy\nStream size                              : 222 MiB (24%)\n\nDIKO MOU RIP.\n\nFULL SCREENSHOTS: &lt;a href=&quot;\nhttp://bayimg.com/AAnjiaAEH&quot; rel=&quot;nofollow&quot; target=&quot;_NEW&quot;&gt;\nhttp://bayimg.com/AAnjiaAEH&lt;/a&gt;\n\nKALH PROBOLH KAI S E E D ! ! ! !\n\n-------------------------------------------------------\n|PERISSOTERA/MORE: https://thepiratebay.se/user/GRRiPS|\n-------------------------------------------------------\t\n\n//////////////////////////////////////////////////////\n/         SUNTOMA KAI SE DIKO MAS BLOG! ;)           /\n//////////////////////////////////////////////////////","torrent":{"xt":"urn:btih:8bddb7972167d7fa562cdefc301416d7a25dc0aa","amp;dn":"%5BGR+HARDSUBBED%5D+Dark.Water.2002.DVDRip.x264-GRRiPS","amp;tr":["udp%3A%2F%2Ftracker.openbittorrent.com%3A80","udp%3A%2F%2Fopen.demonii.com%3A1337","udp%3A%2F%2Ftracker.coppersurfer.tk%3A6969","udp%3A%2F%2Fexodus.desync.com%3A6969"],"infoHash":"8bddb7972167d7fa562cdefc301416d7a25dc0aa","infoHashBuffer":{"type":"Buffer","data":[139,221,183,151,33,103,215,250,86,44,222,252,48,20,22,215,162,93,192,170]},"announce":[],"urlList":[]}}